<?xml version="1.0" encoding="UTF-8" standalone="no"?>
<!DOCTYPE svg PUBLIC "-//W3C//DTD SVG 1.1//EN"
 "http://www.w3.org/Graphics/SVG/1.1/DTD/svg11.dtd">
<!-- Generated by graphviz version 2.43.0 (0)
 -->
<!-- Title: pastafarianism Pages: 1 -->
<svg width="450pt" height="208pt"
 viewBox="0.00 0.00 450.40 208.00" xmlns="http://www.w3.org/2000/svg" xmlns:xlink="http://www.w3.org/1999/xlink">
<g id="graph0" class="graph" transform="scale(1 1) rotate(0) translate(4 204)">
<title>pastafarianism</title>
<polygon fill="white" stroke="transparent" points="-4,4 -4,-204 446.4,-204 446.4,4 -4,4"/>
<!-- Path Planning -->
<g id="node1" class="node">
<title>Path Planning</title>
<polygon fill="orange" stroke="black" points="249.06,-200 155.06,-200 155.06,-164 249.06,-164 249.06,-200"/>
<text text-anchor="middle" x="202.06" y="-179.8" font-family="Times,serif" font-size="9.00">Ⓜ Path Planning</text>
</g>
<!-- Selector -->
<g id="node2" class="node">
<title>Selector</title>
<polygon fill="cyan" stroke="black" points="84.8,-92.54 84.8,-107.46 60.35,-118 25.77,-118 1.32,-107.46 1.32,-92.54 25.77,-82 60.35,-82 84.8,-92.54"/>
<text text-anchor="middle" x="43.06" y="-97.8" font-family="Times,serif" font-size="9.00">Ⓜ Selector</text>
</g>
<!-- Path Planning&#45;&gt;Selector -->
<g id="edge1" class="edge">
<title>Path Planning&#45;&gt;Selector</title>
<path fill="none" stroke="black" d="M166.04,-163.96C144.71,-153.75 117.22,-140.39 93.06,-128 87.83,-125.32 82.33,-122.42 76.96,-119.56"/>
<polygon fill="black" stroke="black" points="78.6,-116.46 68.13,-114.81 75.28,-122.63 78.6,-116.46"/>
</g>
<!-- Planner -->
<g id="node5" class="node">
<title>Planner</title>
<ellipse fill="gray" stroke="black" cx="133.06" cy="-100" rx="30.7" ry="18"/>
<text text-anchor="middle" x="133.06" y="-97.8" font-family="Times,serif" font-size="9.00">Planner</text>
</g>
<!-- Path Planning&#45;&gt;Planner -->
<g id="edge4" class="edge">
<title>Path Planning&#45;&gt;Planner</title>
<path fill="none" stroke="black" d="M187.09,-163.64C177.14,-152.11 163.96,-136.82 153.11,-124.24"/>
<polygon fill="black" stroke="black" points="155.56,-121.72 146.37,-116.43 150.25,-126.29 155.56,-121.72"/>
</g>
<!-- Path Following -->
<g id="node6" class="node">
<title>Path Following</title>
<polygon fill="gold" stroke="black" points="360.39,-128 218.29,-128 181.74,-72 323.83,-72 360.39,-128"/>
<text text-anchor="middle" x="271.06" y="-102.8" font-family="Times,serif" font-size="9.00">Path Following</text>
<text text-anchor="middle" x="271.06" y="-92.8" font-family="Times,serif" font-size="9.00">SuccessOnOne</text>
</g>
<!-- Path Planning&#45;&gt;Path Following -->
<g id="edge5" class="edge">
<title>Path Planning&#45;&gt;Path Following</title>
<path fill="none" stroke="black" d="M217.04,-163.64C224.1,-155.45 232.8,-145.36 241.14,-135.7"/>
<polygon fill="black" stroke="black" points="243.83,-137.94 247.71,-128.08 238.53,-133.37 243.83,-137.94"/>
</g>
<!-- ResetBB -->
<g id="node9" class="node">
<title>ResetBB</title>
<ellipse fill="gray" stroke="black" cx="410.06" cy="-100" rx="32.16" ry="18"/>
<text text-anchor="middle" x="410.06" y="-97.8" font-family="Times,serif" font-size="9.00">ResetBB</text>
</g>
<!-- Path Planning&#45;&gt;ResetBB -->
<g id="edge8" class="edge">
<title>Path Planning&#45;&gt;ResetBB</title>
<path fill="none" stroke="black" d="M249.09,-169.79C283.29,-160.76 330.21,-146.52 369.06,-128 373.75,-125.77 378.53,-123.06 383.09,-120.25"/>
<polygon fill="black" stroke="black" points="385.04,-123.16 391.52,-114.77 381.22,-117.29 385.04,-123.16"/>
</g>
<!-- CheckBB -->
<g id="node3" class="node">
<title>CheckBB</title>
<ellipse fill="gray" stroke="black" cx="34.06" cy="-18" rx="34.13" ry="18"/>
<text text-anchor="middle" x="34.06" y="-15.8" font-family="Times,serif" font-size="9.00">CheckBB</text>
</g>
<!-- Selector&#45;&gt;CheckBB -->
<g id="edge2" class="edge">
<title>Selector&#45;&gt;CheckBB</title>
<path fill="none" stroke="black" d="M41.11,-81.64C39.95,-71.3 38.44,-57.94 37.13,-46.22"/>
<polygon fill="black" stroke="black" points="40.58,-45.6 35.98,-36.05 33.62,-46.38 40.58,-45.6"/>
</g>
<!-- Frontier -->
<g id="node4" class="node">
<title>Frontier</title>
<ellipse fill="gray" stroke="black" cx="118.06" cy="-18" rx="31.51" ry="18"/>
<text text-anchor="middle" x="118.06" y="-15.8" font-family="Times,serif" font-size="9.00">Frontier</text>
</g>
<!-- Selector&#45;&gt;Frontier -->
<g id="edge3" class="edge">
<title>Selector&#45;&gt;Frontier</title>
<path fill="none" stroke="black" d="M59.34,-81.64C70.33,-69.92 84.94,-54.33 96.84,-41.64"/>
<polygon fill="black" stroke="black" points="99.56,-43.86 103.84,-34.17 94.45,-39.07 99.56,-43.86"/>
</g>
<!-- DWA -->
<g id="node7" class="node">
<title>DWA</title>
<ellipse fill="gray" stroke="black" cx="233.06" cy="-18" rx="27" ry="18"/>
<text text-anchor="middle" x="233.06" y="-15.8" font-family="Times,serif" font-size="9.00">DWA</text>
</g>
<!-- Path Following&#45;&gt;DWA -->
<g id="edge6" class="edge">
<title>Path Following&#45;&gt;DWA</title>
<path fill="none" stroke="black" d="M258.2,-71.92C254.01,-63.09 249.37,-53.32 245.23,-44.61"/>
<polygon fill="black" stroke="black" points="248.27,-42.85 240.82,-35.32 241.95,-45.86 248.27,-42.85"/>
</g>
<!-- IsPathValid -->
<g id="node8" class="node">
<title>IsPathValid</title>
<ellipse fill="gray" stroke="black" cx="318.06" cy="-18" rx="39.67" ry="18"/>
<text text-anchor="middle" x="318.06" y="-15.8" font-family="Times,serif" font-size="9.00">IsPathValid</text>
</g>
<!-- Path Following&#45;&gt;IsPathValid -->
<g id="edge7" class="edge">
<title>Path Following&#45;&gt;IsPathValid</title>
<path fill="none" stroke="black" d="M286.98,-71.92C292.19,-63.03 297.97,-53.2 303.11,-44.44"/>
<polygon fill="black" stroke="black" points="306.15,-46.19 308.2,-35.79 300.11,-42.64 306.15,-46.19"/>
</g>
</g>
</svg>
